<svg width="166" height="31" viewBox="0 0 166 31" fill="none" xmlns="http://www.w3.org/2000/svg">
<g filter="url(#filter0_d_7_4)">
<path d="M11.96 22.3C10.6 22.3 9.51 21.94 8.69 21.22C7.87 20.48 7.46 19.48 7.46 18.22L8 18.85H7.46V22H4.76V0.0999994H7.46V4.9L7.4 8.65H8L7.46 9.28C7.46 8.04 7.87 7.05 8.69 6.31C9.53 5.57 10.62 5.2 11.96 5.2C13.62 5.2 14.95 5.75 15.95 6.85C16.95 7.95 17.45 9.45 17.45 11.35V16.18C17.45 18.06 16.95 19.55 15.95 20.65C14.95 21.75 13.62 22.3 11.96 22.3ZM11.06 19.96C12.2 19.96 13.1 19.62 13.76 18.94C14.42 18.26 14.75 17.28 14.75 16V11.5C14.75 10.22 14.42 9.24 13.76 8.56C13.1 7.88 12.2 7.54 11.06 7.54C9.96 7.54 9.08 7.89 8.42 8.59C7.78 9.29 7.46 10.26 7.46 11.5V16C7.46 17.24 7.78 18.21 8.42 18.91C9.08 19.61 9.96 19.96 11.06 19.96ZM27.5483 22.3C25.8083 22.3 24.4383 21.86 23.4383 20.98C22.4383 20.08 21.9383 18.87 21.9383 17.35C21.9383 15.81 22.4383 14.6 23.4383 13.72C24.4383 12.84 25.7883 12.4 27.4883 12.4H32.5883V10.75C32.5883 9.73 32.2783 8.95 31.6583 8.41C31.0583 7.85 30.1983 7.57 29.0783 7.57C28.0983 7.57 27.2783 7.78 26.6183 8.2C25.9583 8.6 25.5783 9.15 25.4783 9.85H22.7783C22.9583 8.43 23.6283 7.3 24.7883 6.46C25.9483 5.62 27.3983 5.2 29.1383 5.2C31.0383 5.2 32.5383 5.69 33.6383 6.67C34.7383 7.65 35.2883 8.98 35.2883 10.66V22H32.6483V18.85H32.1983L32.6483 18.4C32.6483 19.6 32.1783 20.55 31.2383 21.25C30.3183 21.95 29.0883 22.3 27.5483 22.3ZM28.2083 20.17C29.4883 20.17 30.5383 19.85 31.3583 19.21C32.1783 18.57 32.5883 17.75 32.5883 16.75V14.41H27.5483C26.6483 14.41 25.9383 14.66 25.4183 15.16C24.8983 15.66 24.6383 16.34 24.6383 17.2C24.6383 18.12 24.9483 18.85 25.5683 19.39C26.2083 19.91 27.0883 20.17 28.2083 20.17ZM40.8266 22V0.0999994H43.5266V12.31H46.7066L51.5066 5.5H54.5966L49.0466 13.36L54.6866 22H51.5366L46.7366 14.65H43.5266V22H40.8266ZM64.9648 22.3C63.6648 22.3 62.5248 22.04 61.5448 21.52C60.5848 21 59.8348 20.27 59.2948 19.33C58.7748 18.37 58.5148 17.26 58.5148 16V11.5C58.5148 10.22 58.7748 9.11 59.2948 8.17C59.8348 7.23 60.5848 6.5 61.5448 5.98C62.5248 5.46 63.6648 5.2 64.9648 5.2C66.2648 5.2 67.3948 5.46 68.3548 5.98C69.3348 6.5 70.0848 7.23 70.6048 8.17C71.1448 9.11 71.4148 10.22 71.4148 11.5V14.41H61.1548V16C61.1548 17.3 61.4848 18.3 62.1448 19C62.8048 19.68 63.7448 20.02 64.9648 20.02C66.0048 20.02 66.8448 19.84 67.4848 19.48C68.1248 19.1 68.5148 18.54 68.6548 17.8H71.3548C71.1748 19.18 70.4948 20.28 69.3148 21.1C68.1548 21.9 66.7048 22.3 64.9648 22.3ZM68.7748 12.61V11.5C68.7748 10.2 68.4448 9.2 67.7848 8.5C67.1448 7.8 66.2048 7.45 64.9648 7.45C63.7448 7.45 62.8048 7.8 62.1448 8.5C61.4848 9.2 61.1548 10.2 61.1548 11.5V12.37H68.9848L68.7748 12.61Z" fill="#FD6C22"/>
<path d="M82.9531 22.3C82.1931 22.3 81.5831 22.08 81.1231 21.64C80.6831 21.2 80.4631 20.61 80.4631 19.87C80.4631 19.09 80.6831 18.47 81.1231 18.01C81.5831 17.55 82.1931 17.32 82.9531 17.32C83.7131 17.32 84.3131 17.55 84.7531 18.01C85.2131 18.47 85.4431 19.09 85.4431 19.87C85.4431 20.61 85.2131 21.2 84.7531 21.64C84.3131 22.08 83.7131 22.3 82.9531 22.3ZM101.061 22.3C99.7414 22.3 98.5814 22.05 97.5814 21.55C96.6014 21.05 95.8414 20.33 95.3014 19.39C94.7614 18.43 94.4914 17.3 94.4914 16V11.5C94.4914 10.18 94.7614 9.05 95.3014 8.11C95.8414 7.17 96.6014 6.45 97.5814 5.95C98.5814 5.45 99.7414 5.2 101.061 5.2C102.961 5.2 104.491 5.71 105.651 6.73C106.811 7.75 107.421 9.14 107.481 10.9H104.781C104.721 9.84 104.361 9.03 103.701 8.47C103.061 7.89 102.181 7.6 101.061 7.6C99.8814 7.6 98.9414 7.94 98.2414 8.62C97.5414 9.28 97.1914 10.23 97.1914 11.47V16C97.1914 17.24 97.5414 18.2 98.2414 18.88C98.9414 19.56 99.8814 19.9 101.061 19.9C102.181 19.9 103.061 19.61 103.701 19.03C104.361 18.45 104.721 17.64 104.781 16.6H107.481C107.421 18.36 106.811 19.75 105.651 20.77C104.491 21.79 102.961 22.3 101.061 22.3ZM117.49 22.3C115.75 22.3 114.38 21.86 113.38 20.98C112.38 20.08 111.88 18.87 111.88 17.35C111.88 15.81 112.38 14.6 113.38 13.72C114.38 12.84 115.73 12.4 117.43 12.4H122.53V10.75C122.53 9.73 122.22 8.95 121.6 8.41C121 7.85 120.14 7.57 119.02 7.57C118.04 7.57 117.22 7.78 116.56 8.2C115.9 8.6 115.52 9.15 115.42 9.85H112.72C112.9 8.43 113.57 7.3 114.73 6.46C115.89 5.62 117.34 5.2 119.08 5.2C120.98 5.2 122.48 5.69 123.58 6.67C124.68 7.65 125.23 8.98 125.23 10.66V22H122.59V18.85H122.14L122.59 18.4C122.59 19.6 122.12 20.55 121.18 21.25C120.26 21.95 119.03 22.3 117.49 22.3ZM118.15 20.17C119.43 20.17 120.48 19.85 121.3 19.21C122.12 18.57 122.53 17.75 122.53 16.75V14.41H117.49C116.59 14.41 115.88 14.66 115.36 15.16C114.84 15.66 114.58 16.34 114.58 17.2C114.58 18.12 114.89 18.85 115.51 19.39C116.15 19.91 117.03 20.17 118.15 20.17ZM130.768 22V0.0999994H133.468V12.31H136.648L141.448 5.5H144.538L138.988 13.36L144.628 22H141.478L136.678 14.65H133.468V22H130.768ZM154.906 22.3C153.606 22.3 152.466 22.04 151.486 21.52C150.526 21 149.776 20.27 149.236 19.33C148.716 18.37 148.456 17.26 148.456 16V11.5C148.456 10.22 148.716 9.11 149.236 8.17C149.776 7.23 150.526 6.5 151.486 5.98C152.466 5.46 153.606 5.2 154.906 5.2C156.206 5.2 157.336 5.46 158.296 5.98C159.276 6.5 160.026 7.23 160.546 8.17C161.086 9.11 161.356 10.22 161.356 11.5V14.41H151.096V16C151.096 17.3 151.426 18.3 152.086 19C152.746 19.68 153.686 20.02 154.906 20.02C155.946 20.02 156.786 19.84 157.426 19.48C158.066 19.1 158.456 18.54 158.596 17.8H161.296C161.116 19.18 160.436 20.28 159.256 21.1C158.096 21.9 156.646 22.3 154.906 22.3ZM158.716 12.61V11.5C158.716 10.2 158.386 9.2 157.726 8.5C157.086 7.8 156.146 7.45 154.906 7.45C153.686 7.45 152.746 7.8 152.086 8.5C151.426 9.2 151.096 10.2 151.096 11.5V12.37H158.926L158.716 12.61Z" fill="black"/>
</g>
<defs>
<filter id="filter0_d_7_4" x="0.76001" y="0.0999756" width="164.596" height="30.2001" filterUnits="userSpaceOnUse" color-interpolation-filters="sRGB">
<feFlood flood-opacity="0" result="BackgroundImageFix"/>
<feColorMatrix in="SourceAlpha" type="matrix" values="0 0 0 0 0 0 0 0 0 0 0 0 0 0 0 0 0 0 127 0" result="hardAlpha"/>
<feOffset dy="4"/>
<feGaussianBlur stdDeviation="2"/>
<feComposite in2="hardAlpha" operator="out"/>
<feColorMatrix type="matrix" values="0 0 0 0 0 0 0 0 0 0 0 0 0 0 0 0 0 0 0.15 0"/>
<feBlend mode="normal" in2="BackgroundImageFix" result="effect1_dropShadow_7_4"/>
<feBlend mode="normal" in="SourceGraphic" in2="effect1_dropShadow_7_4" result="shape"/>
</filter>
</defs>
</svg>
